<?xml version="1.0" encoding="UTF-8"?>
<svg width="512" height="512" viewBox="0 0 512 512" fill="none" xmlns="http://www.w3.org/2000/svg">
    <path d="M290.59 192C282.38 192 275.59 199.16 275.59 208C275.59 216.84 282.38 224 290.59 224C298.8 224 305.59 216.84 305.59 208C305.59 199.16 298.8 192 290.59 192ZM221.41 192C213.2 192 206.41 199.16 206.41 208C206.41 216.84 213.2 224 221.41 224C229.62 224 236.41 216.84 236.41 208C236.41 199.16 229.62 192 221.41 192ZM512 96V416C512 451.35 483.35 480 448 480H64C28.65 480 0 451.35 0 416V96C0 60.65 28.65 32 64 32H448C483.35 32 512 60.65 512 96ZM416 256C416 176.47 351.53 112 272 112H240C160.47 112 96 176.47 96 256C96 335.53 160.47 400 240 400H272C351.53 400 416 335.53 416 256ZM301.41 320H210.59C201.52 320 194.59 328.07 194.59 338.5C194.59 348.93 201.52 357 210.59 357H301.41C310.48 357 317.41 348.93 317.41 338.5C317.41 328.07 310.48 320 301.41 320Z" fill="#0088b3"/>
</svg> 