<?xml version="1.0" encoding="UTF-8"?>
<svg width="512" height="512" viewBox="0 0 512 512" fill="none" xmlns="http://www.w3.org/2000/svg">
    <path d="M496 96H384L320 16C317.1 12.1 312.7 10 308 10C303.3 10 298.9 12.1 296 16L232 96H120L56 16C53.1 12.1 48.7 10 44 10C39.3 10 34.9 12.1 32 16L16 40C6.4 54.3 0 71.7 0 90V406C0 461.2 44.8 506 100 506H412C467.2 506 512 461.2 512 406V112C512 103.2 504.8 96 496 96ZM400 246C400 268.1 382.1 286 360 286C337.9 286 320 268.1 320 246C320 223.9 337.9 206 360 206C382.1 206 400 223.9 400 246ZM152 246C152 223.9 169.9 206 192 206C214.1 206 232 223.9 232 246C232 268.1 214.1 286 192 286C169.9 286 152 268.1 152 246ZM394 426H118C104.7 426 94 415.3 94 402C94 388.7 104.7 378 118 378H394C407.3 378 418 388.7 418 402C418 415.3 407.3 426 394 426Z" fill="#0088b3"/>
</svg> 