<?xml version="1.0" encoding="UTF-8"?>
<svg width="32" height="32" viewBox="0 0 32 32" xmlns="http://www.w3.org/2000/svg">
    <style>
        .pet { fill: #0083B0; }
    </style>
    
    <!-- Pet Icons -->
    <g transform="translate(2,2) scale(0.14)">
        <!-- Cat -->
        <path class="pet" d="M60,0 C40,0 20,15 20,40 C20,65 40,80 60,80 C80,80 100,65 100,40 C100,15 80,0 60,0 Z M45,30 C48.3,30 51,32.7 51,36 C51,39.3 48.3,42 45,42 C41.7,42 39,39.3 39,36 C39,32.7 41.7,30 45,30 Z M75,30 C78.3,30 81,32.7 81,36 C81,39.3 78.3,42 75,42 C71.7,42 69,39.3 69,36 C69,32.7 71.7,30 75,30 Z"/>
        
        <!-- Dog -->
        <path class="pet" d="M160,0 C140,0 120,15 120,40 C120,65 140,80 160,80 C180,80 200,65 200,40 C200,15 180,0 160,0 Z M145,30 C148.3,30 151,32.7 151,36 C151,39.3 148.3,42 145,42 C141.7,42 139,39.3 139,36 C139,32.7 141.7,30 145,30 Z M175,30 C178.3,30 181,32.7 181,36 C181,39.3 178.3,42 175,42 C171.7,42 169,39.3 169,36 C169,32.7 171.7,30 175,30 Z"/>
    </g>
</svg> 